<?xml version="1.0" encoding="utf-8"?>
<!-- http://www.supercoloring.com/silhouettes/toilet -->
<!-- Generator: Adobe Illustrator 18.0.0, SVG Export Plug-In . SVG Version: 6.00 Build 0)  -->
<!DOCTYPE svg PUBLIC "-//W3C//DTD SVG 1.1//EN" "http://www.w3.org/Graphics/SVG/1.1/DTD/svg11.dtd">
<svg version="1.1" id="Слой_1" xmlns="http://www.w3.org/2000/svg" xmlns:xlink="http://www.w3.org/1999/xlink" x="0px" y="0px"
	 viewBox="0 33 768 991" enable-background="new 0 33 768 991" xml:space="preserve">
<path fill="#FAB82A"      d="
	M286.1,39.1L37.9,58.3c0,0-40.2-3.5-32.3,36.7l10.5,4.4c0,0-5.2,292.7,21.8,339c0,0,61.9,38.4,107.4,34.9c0,0-7.1,12.1,0,25.3
	l74.3,65.6c0,0-29.7,88.2,26.2,130.2c0,0,7,12.2-7,40.2c0,0-10.5,8.7,0,61.2c0,0,0.9,9.6-9.6,18.3c0,0-14.9,11.4-7.9,45.4
	c0,0,49.8,87.4,328.5,158.1c0,0,28.8,7.9,58.5-5.2l71.6-34.1c0,0,5.2-7,4.4-28c0,0-7-201.8-16.6-225.4c0,0,10.5-7,23.6-12.2
	c0,0,57.7-23.6,69.9-62.9c0,0,5.2-76-6.1-78.6c0,0,5.2-14,3.5-17.5c0,0,14-31.6-16.6-55.1c0,0-49.8-44.5-283.1-82.9
	c0,0-31.3,0-75.5,10.5c0,0,26.6-51.6,34.4-156.4l13.1-173c0,0,5.2,3.5,9.6-3.5c0,0,13.1-32.1-21.8-36.5L311.4,39.1
	C311.4,39.1,298.6,38.1,286.1,39.1z"/>
</svg>
